<svg width="318" height="368" viewBox="0 0 318 368" fill="none" xmlns="http://www.w3.org/2000/svg">
<path d="M2.26187 165.436C2.26187 122.898 1 76.4635 1 33.9256C3.58376 31.2818 5.81421 25.9583 8.71141 23.906C12.3453 21.3317 15.6324 18.4542 19.6125 18.4542C23.2174 18.4542 27.1846 19.4404 30.6539 17.163C37.6561 12.5666 43.6288 11.9982 50.9489 11.9982C55.7719 11.9982 60.7178 12.6561 65.5304 11.9265C70.3065 11.2025 75.1256 7.05402 79.9368 5.82917C96.9753 1.49137 114.311 6.29473 131.428 5.4705C149.869 4.5825 168.33 -1.58919 186.845 2.2425C192.449 3.40224 197.726 7.94903 203.389 8.12464C207.021 8.23725 210.659 8.12464 214.29 8.12464C221.827 8.12464 229.626 8.41491 237.109 10.2049C243.755 11.7946 249.895 15.6575 256.668 15.8718C269.727 16.2851 282.737 18.4775 295.786 19.4585C297.605 19.5953 304.218 17.2366 305.425 21.6822C309.155 35.4216 306.738 57.8703 307.143 72.6846C307.824 97.6374 311.581 121.449 312.366 146.498C313.45 181.117 312.977 216.525 312.19 251.157C311.903 263.781 312.363 276.28 310.788 288.602C310.113 293.882 310.157 299.04 310.157 304.455V334.153C310.157 340.078 310.942 343.837 307.634 343.837C304.029 343.837 301.161 344.018 298.836 350.364C296.116 357.784 295.938 356.749 290.809 356.749C281.693 356.749 272.882 361.191 263.819 361.842C249.775 362.85 235.574 362.083 221.546 360.909C203.952 359.436 186.536 354.284 168.898 355.529C161.314 356.064 154.453 363.906 147.026 365.644C140.673 367.129 133.574 363.634 127.397 361.34C113.074 356.019 98.9846 348.497 84.7038 342.832C76.4115 339.543 68.054 339.743 59.6417 340.035C45.6139 340.521 31.5884 342.631 17.7197 346.921C16.5677 347.278 8.17512 351.462 7.94027 347.136C7.49904 339.01 6.86837 325.367 7.97532 317.439C11.3215 293.471 4.7856 267.699 4.7856 243.338C4.7856 216.887 2.26187 191.667 2.26187 165.436Z" stroke="#817F82" stroke-linecap="round" stroke-linejoin="round"/>
<path d="M36.3352 30.0674C25.8187 34.0159 16.4699 37.1557 5.79823 37.1557C4.8516 42.9608 3.2331 43.1712 3.2331 49.4389C3.2331 56.4035 3.03373 62.503 3.2331 69.4311C3.48034 78.0229 3.26824 86.7584 3.26824 95.3623C3.26824 109.412 1.92623 122.579 2.00319 136.737C2.06662 148.407 4.03233 158.935 4.8144 170.354C5.74448 183.934 7.06338 197.93 7.06338 211.658C7.06338 224.057 5.73857 238.705 3.5845 250.447C1.163 263.646 2.0009 275.922 3.26824 289.595C4.21621 299.822 6.12963 308.714 7.62562 318.543C8.47311 324.111 7.44772 329.302 9.94487 332.55C13.0759 336.623 18.4988 337.31 22.0331 338.44C28.9404 340.65 35.8683 341.7 42.3441 347.491C49.7173 354.085 59.1471 352.276 67.0126 350.077C77.2375 347.219 87.3386 350.077 97.5494 350.077H136.801C149.721 350.077 162.692 354.602 175.596 352.017C189.238 349.283 202.502 344.413 216.288 346.486C223.281 347.537 230.17 352.008 237.232 349.431C240.275 348.32 243.499 348.588 246.579 348.856C256.365 349.707 264.082 355.113 273.075 362.719C277.972 366.862 283.35 368.172 288.536 365.88C293.342 363.756 294.898 361.961 298.059 353.884C301.152 345.983 303.852 337.412 306.88 329.39C309.193 323.258 312.487 318.449 314.47 311.791C317.001 303.292 317 290.328 317 280.531V280.257C317 259.246 311.605 238.727 309.761 218.266C308.405 203.212 306.932 188.846 306.107 173.659C305.052 154.262 304.35 135.257 304.35 115.762C304.35 88.9562 307.512 62.5815 307.512 35.9576C307.512 33.7333 308.447 19.327 306.247 19.0772C304.619 18.8923 302.958 19.0772 301.327 19.0772H291.031C278.478 19.0772 265.922 20.3701 253.396 20.3701C248.293 20.3701 242.364 15.2085 237.443 12.8997C227.982 8.46149 218.621 8.73343 208.979 8.73343C197.603 8.73343 186.326 5.08277 174.928 6.21933C169.06 6.80449 163.385 8.73343 157.463 8.73343C150.949 8.73343 144.341 8.36606 137.996 11.894C133.673 14.2973 129.378 17.0865 125.486 21.6631C123.06 24.5151 121.148 27.0715 118.282 26.7632C111.293 26.0113 104.295 22.1346 97.4791 19.149C91.2852 16.4359 84.5688 17.7842 78.2574 17.7842C72.5686 17.7842 66.9077 17.4553 61.2496 18.7899C53.006 20.7342 44.5753 26.9736 36.3352 30.0674Z" stroke="#817F82" stroke-linecap="round" stroke-linejoin="round"/>
</svg>
